<svg width="1280" height="640" viewBox="0 0 1280 640" fill="none" xmlns="http://www.w3.org/2000/svg">
  <defs>
    <linearGradient id="bg" x1="92" y1="72" x2="1184" y2="588" gradientUnits="userSpaceOnUse">
      <stop stop-color="#0B1220"/>
      <stop offset="1" stop-color="#172554"/>
    </linearGradient>
    <linearGradient id="panel" x1="744" y1="104" x2="1116" y2="520" gradientUnits="userSpaceOnUse">
      <stop stop-color="#F8FAFC"/>
      <stop offset="1" stop-color="#E2E8F0"/>
    </linearGradient>
    <linearGradient id="glow" x1="842" y1="214" x2="842" y2="286" gradientUnits="userSpaceOnUse">
      <stop stop-color="#86EFAC"/>
      <stop offset="1" stop-color="#22C55E"/>
    </linearGradient>
    <filter id="shadow" x="0" y="0" width="1280" height="640" filterUnits="userSpaceOnUse" color-interpolation-filters="sRGB">
      <feDropShadow dx="0" dy="26" stdDeviation="30" flood-color="#020617" flood-opacity="0.34"/>
    </filter>
  </defs>

  <rect width="1280" height="640" rx="40" fill="url(#bg)"/>
  <circle cx="1116" cy="100" r="170" fill="#38BDF8" fill-opacity="0.08"/>
  <circle cx="176" cy="540" r="220" fill="#22C55E" fill-opacity="0.08"/>
  <circle cx="1012" cy="584" r="120" fill="#F59E0B" fill-opacity="0.07"/>

  <text x="96" y="126" fill="#E2E8F0" font-family="-apple-system, BlinkMacSystemFont, 'Segoe UI', sans-serif" font-size="24" letter-spacing="0.18em">AGENT-AWARE KEEP-AWAKE FOR MACOS</text>
  <text x="96" y="236" fill="white" font-family="-apple-system, BlinkMacSystemFont, 'Segoe UI', sans-serif" font-size="80" font-weight="700">awake</text>
  <text x="96" y="304" fill="#CBD5E1" font-family="-apple-system, BlinkMacSystemFont, 'Segoe UI', sans-serif" font-size="30">Keeps your Mac awake during</text>
  <text x="96" y="344" fill="#CBD5E1" font-family="-apple-system, BlinkMacSystemFont, 'Segoe UI', sans-serif" font-size="30">long-running coding sessions.</text>
  <text x="96" y="398" fill="#94A3B8" font-family="-apple-system, BlinkMacSystemFont, 'Segoe UI', sans-serif" font-size="22">Native menu bar app, CLI control, and safe automatic restore.</text>

  <rect x="96" y="452" width="174" height="52" rx="26" fill="#22C55E"/>
  <text x="135" y="485" fill="#052E16" font-family="-apple-system, BlinkMacSystemFont, 'Segoe UI', sans-serif" font-size="23" font-weight="700">menu bar app</text>

  <rect x="286" y="452" width="108" height="52" rx="26" fill="#0F172A" stroke="#334155"/>
  <text x="325" y="485" fill="#E2E8F0" font-family="-apple-system, BlinkMacSystemFont, 'Segoe UI', sans-serif" font-size="23" font-weight="600">CLI</text>

  <rect x="410" y="452" width="166" height="52" rx="26" fill="#0F172A" stroke="#334155"/>
  <text x="443" y="485" fill="#E2E8F0" font-family="-apple-system, BlinkMacSystemFont, 'Segoe UI', sans-serif" font-size="23" font-weight="600">safe restore</text>

  <g filter="url(#shadow)">
    <rect x="704" y="92" width="424" height="456" rx="30" fill="url(#panel)"/>
    <rect x="704" y="92" width="424" height="72" rx="30" fill="#F1F5F9"/>
    <circle cx="746" cy="128" r="8" fill="#F87171"/>
    <circle cx="772" cy="128" r="8" fill="#FBBF24"/>
    <circle cx="798" cy="128" r="8" fill="#4ADE80"/>

    <rect x="740" y="188" width="352" height="126" rx="26" fill="#ECFDF5"/>
    <rect x="764" y="210" width="188" height="18" rx="9" fill="#14532D" fill-opacity="0.10"/>
    <rect x="764" y="244" width="246" height="42" rx="21" fill="url(#glow)"/>
    <circle cx="788" cy="265" r="8" fill="#052E16"/>
    <path d="M787 253L780 267H790L783 279" stroke="#052E16" stroke-width="3" stroke-linecap="round" stroke-linejoin="round"/>

    <rect x="740" y="338" width="164" height="72" rx="20" fill="#F8FAFC" stroke="#E2E8F0"/>
    <rect x="764" y="360" width="90" height="12" rx="6" fill="#94A3B8"/>
    <rect x="764" y="382" width="112" height="14" rx="7" fill="#0F172A" fill-opacity="0.90"/>

    <rect x="928" y="338" width="164" height="72" rx="20" fill="#F8FAFC" stroke="#E2E8F0"/>
    <rect x="952" y="360" width="72" height="12" rx="6" fill="#94A3B8"/>
    <rect x="952" y="382" width="88" height="14" rx="7" fill="#0F172A" fill-opacity="0.90"/>

    <rect x="740" y="432" width="352" height="84" rx="22" fill="#F8FAFC" stroke="#E2E8F0"/>
    <polyline points="764,492 796,466 830,472 864,436 898,446 932,388 966,398 1000,422 1034,440 1064,462"
      fill="none" stroke="#F59E0B" stroke-width="8" stroke-linecap="round" stroke-linejoin="round"/>
    <circle cx="1064" cy="462" r="10" fill="white" stroke="#F59E0B" stroke-width="5"/>
  </g>
</svg>
